<svg xmlns="http://www.w3.org/2000/svg" viewBox="0 0 1812.94 340"><defs><style>.cls-1{fill:#fff;}.cls-2{opacity:0.6;}.cls-3{fill:#1c3ad1;}</style></defs><g id="레이어_2" data-name="레이어 2"><g id="Logo"><g id="레이어_4" data-name="레이어 4"><path class="cls-1" d="M515.85,73.43q-1.12-11.31-9.63-17.58t-23.09-6.27q-9.92,0-16.74,2.76A23.57,23.57,0,0,0,456,60a18.09,18.09,0,0,0-3.6,11,15.53,15.53,0,0,0,2.2,9,21.48,21.48,0,0,0,6.59,6.6,47.14,47.14,0,0,0,9.73,4.77,95.35,95.35,0,0,0,11.78,3.41l17.2,4.11a122,122,0,0,1,23,7.48A70.14,70.14,0,0,1,541,117.84a48.56,48.56,0,0,1,11.92,16.09,51.48,51.48,0,0,1,4.35,21.22q-.1,17.58-8.93,30.44t-25.44,19.92q-16.59,7.05-40,7.06-23.19,0-40.35-7.11t-26.74-21.09q-9.59-14-10.05-34.64H445q.66,9.63,5.57,16a29.83,29.83,0,0,0,13.18,9.63,51.34,51.34,0,0,0,18.75,3.22,48.76,48.76,0,0,0,17.91-3,27.42,27.42,0,0,0,11.83-8.32,19.24,19.24,0,0,0,4.2-12.25,16.06,16.06,0,0,0-3.78-10.85,29.68,29.68,0,0,0-11-7.48,115.55,115.55,0,0,0-17.72-5.61L463,125.89q-24.21-5.9-38.24-18.42T410.84,73.71q-.09-17.4,9.31-30.39T446,23q16.46-7.29,37.41-7.29,21.32,0,37.26,7.29t24.82,20.29q8.89,13,9.17,30.11Z"/><path class="cls-1" d="M579.12,209.86V18.35h129V51.74H619.61V97.37h81.91v33.38H619.61v45.72h88.93v33.39Z"/><path class="cls-1" d="M778.26,209.86,723.47,18.35H767.7l31.69,133.06H801L836,18.35h37.87L908.7,151.69h1.69l31.7-133.34h44.22L931.52,209.86H892.06L855.59,84.65H854.1L817.72,209.86Z"/><path class="cls-1" d="M1167.87,114.1q0,31.34-11.82,53.3t-32.17,33.53q-20.34,11.53-45.68,11.54-25.53,0-45.82-11.59t-32.07-33.57q-11.77-22-11.78-53.21t11.78-53.29q11.78-22,32.07-33.53t45.82-11.54q25.33,0,45.68,11.54t32.17,33.53Q1167.87,82.77,1167.87,114.1Zm-41,0q0-20.28-6-34.22t-17-21.13q-10.93-7.2-25.62-7.2t-25.62,7.2q-10.93,7.2-17,21.13t-6,34.22q0,20.29,6,34.23t17,21.13q10.93,7.2,25.62,7.2t25.62-7.2q11-7.2,17-21.13T1126.82,114.1Z"/><path class="cls-1" d="M1352.7,18.35V209.86h-35L1234.42,89.32H1233V209.86h-40.49V18.35h35.53l82.66,120.44h1.68V18.35Z"/><path class="cls-1" d="M1436.61,209.86V18.35h76.68q21.12,0,35.25,6.27T1569.77,42a46.25,46.25,0,0,1,7.1,25.48,41.33,41.33,0,0,1-4.49,19.69A38.46,38.46,0,0,1,1560.09,101a50.8,50.8,0,0,1-17.82,7.62v1.87a43.18,43.18,0,0,1,20.53,6.17,44,44,0,0,1,15.57,15.94q6,10.25,6,24.36a49.83,49.83,0,0,1-7.52,27.16q-7.53,11.92-22.21,18.85t-36.19,6.92ZM1477.1,98.49h30a35.49,35.49,0,0,0,14.82-2.95,24.55,24.55,0,0,0,10.28-8.37,22.05,22.05,0,0,0,3.79-13q0-10.38-7.34-16.74t-20.81-6.36H1477.1Zm0,78.26h33q16.92,0,24.68-6.5t7.76-17.34a25.72,25.72,0,0,0-3.83-14,26.1,26.1,0,0,0-10.89-9.53,37.74,37.74,0,0,0-16.79-3.46H1477.1Z"/><path class="cls-1" d="M1605.36,18.35h49.93L1708,147h2.24L1763,18.35h49.93V209.86h-39.27V85.21h-1.59l-49.56,123.71h-26.74L1646.22,84.74h-1.59V209.86h-39.27Z"/><g class="cls-2"><path class="cls-1" d="M439.9,278.18a10.21,10.21,0,0,0-4.76-7.69,18.2,18.2,0,0,0-10.23-2.74,19.47,19.47,0,0,0-7.74,1.43,12.35,12.35,0,0,0-5.15,3.94,9.41,9.41,0,0,0-1.84,5.71,8,8,0,0,0,1.29,4.58,10.87,10.87,0,0,0,3.31,3.16,22.31,22.31,0,0,0,4.23,2.05q2.22.79,4.08,1.29l6.77,1.82q2.61.69,5.82,1.89a27.54,27.54,0,0,1,6.16,3.28,17.06,17.06,0,0,1,4.87,5.29,15.23,15.23,0,0,1,1.92,7.92,17.6,17.6,0,0,1-2.82,9.77,19.29,19.29,0,0,1-8.21,6.94,30.08,30.08,0,0,1-13.08,2.58,30.53,30.53,0,0,1-12.4-2.31,19.7,19.7,0,0,1-8.21-6.46,18.26,18.26,0,0,1-3.37-9.61h8.34a10.26,10.26,0,0,0,2.56,6.24,13.29,13.29,0,0,0,5.67,3.65,22.57,22.57,0,0,0,7.41,1.19,21.52,21.52,0,0,0,8.31-1.52,14.09,14.09,0,0,0,5.83-4.23,10,10,0,0,0,2.15-6.37,7.82,7.82,0,0,0-1.86-5.41,13.55,13.55,0,0,0-4.88-3.39,51.26,51.26,0,0,0-6.55-2.28l-8.21-2.35a30.59,30.59,0,0,1-12.39-6.42,14.1,14.1,0,0,1-4.56-10.91,16.19,16.19,0,0,1,3.05-9.79,20.08,20.08,0,0,1,8.21-6.52,27.81,27.81,0,0,1,11.55-2.33,27.13,27.13,0,0,1,11.47,2.3,20.08,20.08,0,0,1,8,6.27,15.7,15.7,0,0,1,3.11,9Z"/><path class="cls-1" d="M471.1,328.23V261.49h40.28v7.17h-32.2v22.55h30.11v7.17H479.18v22.68H511.9v7.17Z"/><path class="cls-1" d="M547.27,328.23,529,261.49h8.22l13.94,54.35h.65L566,261.49h9.13l14.2,54.35H590l14-54.35h8.21l-18.24,66.74h-8.35l-14.73-53.18h-.52l-14.73,53.18Z"/><path class="cls-1" d="M684.57,294.86a40.7,40.7,0,0,1-3.81,18.25A28.65,28.65,0,0,1,670.3,325a29.73,29.73,0,0,1-30.37,0,28.65,28.65,0,0,1-10.46-11.86,45.61,45.61,0,0,1,0-36.5,28.59,28.59,0,0,1,10.46-11.86,29.73,29.73,0,0,1,30.37,0,28.59,28.59,0,0,1,10.46,11.86A40.7,40.7,0,0,1,684.57,294.86Zm-7.82,0a33.44,33.44,0,0,0-2.88-14.63,21.11,21.11,0,0,0-7.79-9,21.18,21.18,0,0,0-21.93,0,21.18,21.18,0,0,0-7.79,9,38.6,38.6,0,0,0,0,29.26,21.24,21.24,0,0,0,7.79,9,21.18,21.18,0,0,0,21.93,0,21.17,21.17,0,0,0,7.79-9A33.47,33.47,0,0,0,676.75,294.86Z"/><path class="cls-1" d="M760.22,261.49v66.74H752.4L716,275.83h-.65v52.4H707.3V261.49h7.82L751.62,314h.65V261.49Z"/><path class="cls-1" d="M820.54,328.23V261.49h23.34a24.45,24.45,0,0,1,11.5,2.4,15.82,15.82,0,0,1,6.74,6.42,18.12,18.12,0,0,1,2.22,8.91,14.82,14.82,0,0,1-1.52,7.1,12,12,0,0,1-4,4.43,18.2,18.2,0,0,1-5.33,2.41v.66a13,13,0,0,1,6.16,2.15,15.62,15.62,0,0,1,5.18,5.6A17.74,17.74,0,0,1,867,310.5a18,18,0,0,1-2.28,9,15.81,15.81,0,0,1-7.21,6.35q-4.92,2.34-12.8,2.35Zm8.09-37.41h15a14.81,14.81,0,0,0,6.6-1.44,11.63,11.63,0,0,0,4.7-4,10.75,10.75,0,0,0,1.74-6.12,10.2,10.2,0,0,0-3.06-7.48q-3.08-3.08-9.71-3.08H828.63Zm0,30.24h16q7.92,0,11.26-3.08a9.82,9.82,0,0,0,3.34-7.48,12,12,0,0,0-1.73-6.27,12.57,12.57,0,0,0-4.92-4.63,15.58,15.58,0,0,0-7.56-1.74H828.63Z"/><path class="cls-1" d="M889.42,328.23V261.49h40.27v7.17H897.5v22.55h30.11v7.17H897.5v22.68h32.71v7.17Z"/><path class="cls-1" d="M990,278.18a10.21,10.21,0,0,0-4.76-7.69A18.2,18.2,0,0,0,975,267.75a19.47,19.47,0,0,0-7.74,1.43,12.35,12.35,0,0,0-5.15,3.94,9.48,9.48,0,0,0-1.84,5.71,8,8,0,0,0,1.29,4.58,10.87,10.87,0,0,0,3.31,3.16,22.61,22.61,0,0,0,4.23,2.05q2.22.79,4.08,1.29l6.77,1.82q2.61.69,5.82,1.89a27.54,27.54,0,0,1,6.16,3.28,16.94,16.94,0,0,1,4.87,5.29,15.23,15.23,0,0,1,1.92,7.92,17.6,17.6,0,0,1-2.82,9.77,19.23,19.23,0,0,1-8.21,6.94,30.08,30.08,0,0,1-13.08,2.58,30.53,30.53,0,0,1-12.4-2.31,19.7,19.7,0,0,1-8.21-6.46A18.26,18.26,0,0,1,950.6,311h8.34a10.32,10.32,0,0,0,2.56,6.24,13.29,13.29,0,0,0,5.67,3.65,22.57,22.57,0,0,0,7.41,1.19,21.52,21.52,0,0,0,8.31-1.52,14.09,14.09,0,0,0,5.83-4.23,10,10,0,0,0,2.15-6.37,7.86,7.86,0,0,0-1.85-5.41,13.68,13.68,0,0,0-4.89-3.39,51.26,51.26,0,0,0-6.55-2.28l-8.21-2.35A30.65,30.65,0,0,1,957,290.13a14.1,14.1,0,0,1-4.56-10.91,16.19,16.19,0,0,1,3.05-9.79,20.08,20.08,0,0,1,8.21-6.52,27.81,27.81,0,0,1,11.55-2.33,27.13,27.13,0,0,1,11.47,2.3,20.08,20.08,0,0,1,8,6.27,15.7,15.7,0,0,1,3.11,9Z"/><path class="cls-1" d="M1017.51,268.66v-7.17h50v7.17h-21v59.57h-8.08V268.66Z"/><path class="cls-1" d="M1124.24,261.49h9.64l22.68,55.4h.78l22.68-55.4h9.65v66.74h-7.56V277.52h-.65l-20.86,50.71h-7.3l-20.85-50.71h-.65v50.71h-7.56Z"/><path class="cls-1" d="M1215,328.23V261.49h40.27v7.17h-32.19v22.55h30.11v7.17h-30.11v22.68h32.71v7.17Z"/><path class="cls-1" d="M1279.05,261.49h9.65l22.68,55.4h.78l22.68-55.4h9.65v66.74h-7.56V277.52h-.66l-20.85,50.71h-7.3l-20.85-50.71h-.66v50.71h-7.56Z"/><path class="cls-1" d="M1369.82,328.23V261.49h23.33a24.47,24.47,0,0,1,11.51,2.4,15.88,15.88,0,0,1,6.74,6.42,18.12,18.12,0,0,1,2.22,8.91,14.82,14.82,0,0,1-1.52,7.1,12,12,0,0,1-4,4.43,18.2,18.2,0,0,1-5.33,2.41v.66A13,13,0,0,1,1409,296a15.62,15.62,0,0,1,5.18,5.6,17.74,17.74,0,0,1,2.08,8.93,18,18,0,0,1-2.28,9,15.73,15.73,0,0,1-7.2,6.35q-4.92,2.34-12.8,2.35Zm8.08-37.41h15a14.81,14.81,0,0,0,6.6-1.44,11.54,11.54,0,0,0,4.69-4,10.68,10.68,0,0,0,1.75-6.12,10.17,10.17,0,0,0-3.07-7.48q-3.06-3.08-9.71-3.08H1377.9Zm0,30.24h16q7.92,0,11.25-3.08a9.79,9.79,0,0,0,3.34-7.48,12,12,0,0,0-1.72-6.27,12.57,12.57,0,0,0-4.92-4.63,15.58,15.58,0,0,0-7.56-1.74H1377.9Z"/><path class="cls-1" d="M1438.69,328.23V261.49H1479v7.17h-32.19v22.55h30.1v7.17h-30.1v22.68h32.71v7.17Z"/><path class="cls-1" d="M1502.74,328.23V261.49h22.55q7.83,0,12.84,2.66a17.14,17.14,0,0,1,7.43,7.28A22.41,22.41,0,0,1,1548,282a22,22,0,0,1-2.41,10.46,16.87,16.87,0,0,1-7.4,7.16q-5,2.58-12.74,2.59h-18.24v-7.3h18a20,20,0,0,0,8.62-1.57,10,10,0,0,0,4.76-4.44A14.92,14.92,0,0,0,1540,282a15.45,15.45,0,0,0-1.5-7,10.23,10.23,0,0,0-4.79-4.64,19.49,19.49,0,0,0-8.7-1.65h-14.21v59.57Zm31.42-30,16.42,30h-9.39l-16.16-30Z"/><path class="cls-1" d="M1607.07,278.18a10.21,10.21,0,0,0-4.76-7.69,18.2,18.2,0,0,0-10.23-2.74,19.4,19.4,0,0,0-7.74,1.43,12.29,12.29,0,0,0-5.15,3.94,9.41,9.41,0,0,0-1.84,5.71,8,8,0,0,0,1.29,4.58,11,11,0,0,0,3.3,3.16,22.69,22.69,0,0,0,4.24,2.05c1.48.53,2.84,1,4.07,1.29l6.78,1.82q2.61.69,5.82,1.89a27.54,27.54,0,0,1,6.16,3.28,17.06,17.06,0,0,1,4.87,5.29,15.23,15.23,0,0,1,1.92,7.92,17.6,17.6,0,0,1-2.82,9.77,19.29,19.29,0,0,1-8.21,6.94,30.12,30.12,0,0,1-13.08,2.58,30.53,30.53,0,0,1-12.4-2.31,19.64,19.64,0,0,1-8.21-6.46,18.26,18.26,0,0,1-3.37-9.61h8.34a10.31,10.31,0,0,0,2.55,6.24,13.41,13.41,0,0,0,5.67,3.65,22.68,22.68,0,0,0,7.42,1.19,21.52,21.52,0,0,0,8.31-1.52,14.09,14.09,0,0,0,5.83-4.23A10,10,0,0,0,1608,310a7.82,7.82,0,0,0-1.86-5.41,13.63,13.63,0,0,0-4.88-3.39,51.8,51.8,0,0,0-6.55-2.28l-8.22-2.35a30.61,30.61,0,0,1-12.38-6.42,14.1,14.1,0,0,1-4.56-10.91,16.13,16.13,0,0,1,3-9.79,20,20,0,0,1,8.21-6.52,27.81,27.81,0,0,1,11.55-2.33,27.16,27.16,0,0,1,11.47,2.3,20.15,20.15,0,0,1,8,6.27,15.7,15.7,0,0,1,3.11,9Z"/></g><rect class="cls-3" width="340" height="340"/><path class="cls-1" d="M321,31.68a46.16,46.16,0,0,1,14.93-3.11c-.27-8.45,0-11.94,0-11.94H272L170,138.13,68,16.63H4.1s.27,3.49,0,11.94A46.16,46.16,0,0,1,19,31.68c.56.26,21.65,10,21.92,34.05V288.19c-.46,5.1-3.41,15.46-19.1,21.61H5v13.31H41v.26H70.21v-.26h31.13V309.8H94.59C75.08,304.34,71,293.1,70.21,287.2V78.82L145,167.94l-.28.33h50.58l-.28-.33,74.78-89.12V287.2c-.76,5.9-4.87,17.14-24.38,22.6h-6.75v13.31h31.13v.26h29.26v-.26H335V309.8H318.15c-15.69-6.15-18.64-16.51-19.1-21.61V65.73C299.32,41.72,320.41,31.94,321,31.68Z"/><path class="cls-1" d="M198.94,159.09c18.63-27.67,29.8-38.31,23.42-79.28s-36-54.8-63.22-59.06-45.33,0-45.33,0v299.9h78.38s44-13.64,48.26-69.51S222.89,171.86,198.94,159.09ZM135.63,45.66s-.19-.07,33.32,2.74a30.4,30.4,0,0,1,14.24,4.82c22,14.46,19.27,39.1,17.35,57.35-2.13,20.22-27.58,31.5-27.58,31.5H135.63Zm81.94,204.42C216.5,307.54,135.63,293,135.63,293V176.42s23.41-6.69,44.54,0C223.66,191.62,217.57,250.08,217.57,250.08Z"/><path class="cls-3" d="M192.31,321.45H113V20.12l.62-.15c6.31-1.48,24-3.39,45.63,0,16.18,2.53,29.57,7.89,39.8,15.93,13.05,10.24,21.15,25,24.08,43.8,5.8,37.18-2.72,49.55-18.18,72-1.57,2.27-3.18,4.62-4.86,7.11,31.56,17.19,44.63,46.58,41.14,92.39-2.22,29.13-15.35,46.66-26,56.24-11.53,10.39-22.37,13.83-22.83,14Zm-77.7-1.6h77.46a68.09,68.09,0,0,0,22.18-13.65c10.38-9.38,23.22-26.56,25.4-55.12,4.55-59.75-21.26-80.71-41.08-91.28l-.78-.42.49-.73c1.87-2.78,3.65-5.36,5.36-7.85,15.23-22.12,23.62-34.31,17.93-70.86-5.16-33.07-26.2-52.72-62.55-58.4-20.74-3.24-37.72-1.58-44.41-.15ZM157,295.44a136,136,0,0,1-21.48-1.65l-.66-.12V175.82l.58-.17c.23-.06,23.88-6.67,45,0,18.08,6.32,30.36,21.22,35.54,43.11a105.64,105.64,0,0,1,2.41,31.35c-.26,13.77-5.1,24.62-14.39,32.25-12.28,10.08-30.27,12.64-43.19,13C159.48,295.43,158.21,295.44,157,295.44Zm-20.55-3.11c5.58.87,45.19,6.32,66.54-11.2,8.92-7.32,13.56-17.77,13.81-31.07V250a103.68,103.68,0,0,0-2.38-30.91c-5.13-21.61-16.73-35.71-34.48-41.91-18.81-6-39.76-1.1-43.49-.14Zm36.71-149.47h-38.3l0-97.37c.14-.69.72-.64,1.39-.59l3.69.29L169,47.6a31.46,31.46,0,0,1,14.62,4.95c22.28,14.67,19.65,39.64,17.73,57.88l0,.22c-.89,8.49-6,16.74-14.88,23.87a66,66,0,0,1-13.16,8.28Zm-36.71-1.59h36.37c2.08-1,25-12.06,27-30.78l0-.23c1.88-17.83,4.45-42.24-17-56.38a29.78,29.78,0,0,0-13.87-4.69c-23.56-2-30.45-2.52-32.46-2.68Z"/></g></g></g></svg>